<svg width="260" height="59" viewBox="0 0 260 59" fill="none" xmlns="http://www.w3.org/2000/svg">
<g filter="url(#filter0_d_1402_80)">
<path d="M36.3788 42.8672C31.1851 42.8672 28.0904 40.2864 28.0904 36.5562C28.0904 32.5224 31.3798 30.05 37.9586 29.1391C40.404 28.8138 42.092 28.5319 43.0442 28.25V27.1222C43.0442 25.0185 41.248 23.739 38.5429 23.739C35.946 23.739 33.717 24.7149 31.8343 26.6668L28.6747 24.1944C31.1634 21.5919 34.6909 20.0304 38.478 20.0304C45.4896 20.0304 48.2812 23.3052 48.2812 28.8572V42.1949H43.2173V39.5057C42.2435 41.3274 39.6033 42.8672 36.3788 42.8672ZM33.3058 36.1658C33.3058 37.749 34.7991 38.9418 37.1146 38.9418C40.404 38.9418 43.0442 36.7731 43.0442 33.5417V31.5681C41.789 31.8501 40.2742 32.1103 38.5213 32.3489C35.0371 32.8477 33.3058 34.1272 33.3058 36.1658Z" fill="white"/>
<path d="M53.1062 42.1949V11.7676H58.2784V42.1949H53.1062Z" fill="white"/>
<path d="M72.279 42.1949C67.4532 42.1949 65.051 40.0045 65.051 35.6237V24.7149H61.3938V20.6811H65.051V14.3484H70.2015V20.6811H75.655V24.7149H70.2015V35.2984C70.2015 37.3587 71.1104 38.1611 72.9499 38.1611H75.6766V42.1949H72.279Z" fill="white"/>
<path d="M78.9868 42.1949V20.6811H84.094V42.1949H78.9868ZM78.7487 17.493V12.3314H84.3104V17.493H78.7487Z" fill="white"/>
<path d="M99.0901 42.8672C92.5114 42.8672 87.8803 38.378 87.8803 31.3512C87.8803 24.433 92.5763 20.0304 98.917 20.0304C105.128 20.0304 109.629 24.5631 109.629 31.1561C109.629 31.8067 109.586 32.4573 109.499 33.0862H93.1173C93.1173 36.3177 95.4329 39.072 99.1551 39.072C101.817 39.072 103.894 37.7924 104.933 35.949L109.261 37.2719C107.725 40.4599 104.219 42.8672 99.0901 42.8672ZM93.2039 29.7681H104.349C104.349 26.4716 102.315 23.8474 98.917 23.8474C95.4545 23.8474 93.2255 26.5583 93.2039 29.7681Z" fill="white"/>
<path d="M113.394 42.1949V20.6811H118.393V23.0233C119.432 21.4401 121.401 20.0304 124.084 20.0304C125.361 20.0304 126.378 20.1823 127.157 20.5076V24.78C126.119 24.498 125.101 24.3679 124.084 24.3679C120.535 24.3679 118.588 27.0572 118.588 31.2211V42.1949H113.394Z" fill="white"/>
<path d="M138.907 42.8672C132.437 42.8672 127.957 38.378 127.957 31.4597C127.957 24.5848 132.437 20.0304 138.907 20.0304C143.582 20.0304 147.023 23.0884 147.867 26.4065L143.409 27.5343C142.781 25.6258 141.093 24.0643 138.929 24.0643C135.402 24.0643 133.281 27.2307 133.281 31.4597C133.281 36.1225 135.64 38.8334 138.929 38.8334C141.331 38.8334 143.3 37.0333 143.971 35.1032L148.451 36.296C147.39 39.7443 143.582 42.8672 138.907 42.8672Z" fill="white"/>
<path d="M159.4 42.8672C154.206 42.8672 151.112 40.2864 151.112 36.5562C151.112 32.5224 154.401 30.05 160.98 29.1391C163.425 28.8138 165.113 28.5319 166.066 28.25V27.1222C166.066 25.0185 164.269 23.739 161.564 23.739C158.967 23.739 156.738 24.7149 154.856 26.6668L151.696 24.1944C154.185 21.5919 157.712 20.0304 161.499 20.0304C168.511 20.0304 171.303 23.3052 171.303 28.8572V42.1949H166.239V39.5057C165.265 41.3274 162.625 42.8672 159.4 42.8672ZM156.327 36.1658C156.327 37.749 157.82 38.9418 160.136 38.9418C163.425 38.9418 166.066 36.7731 166.066 33.5417V31.5681C164.81 31.8501 163.296 32.1103 161.543 32.3489C158.058 32.8477 156.327 34.1272 156.327 36.1658Z" fill="white"/>
<path d="M176.128 51V20.6811H181.105V23.5004C182.555 21.1799 184.632 20.0304 187.359 20.0304C193.072 20.0304 197.357 24.4113 197.357 31.4163C197.357 35.3417 196.037 38.5081 194.046 40.2431C192.055 41.9997 189.761 42.8672 187.359 42.8672C184.264 42.8672 182.187 41.3708 181.256 39.7009V51H176.128ZM181.235 31.4163C181.235 35.949 183.226 38.8334 186.58 38.8334C189.848 38.8334 192.055 36.1008 192.055 31.4163C192.055 26.9053 190.021 24.0643 186.58 24.0643C183.291 24.0643 181.235 27.0788 181.235 31.4163Z" fill="white"/>
<path d="M201.165 42.1949V20.6811H206.272V42.1949H201.165ZM200.927 17.493V12.3314H206.489V17.493H200.927Z" fill="white"/>
<path d="M220.208 42.1949C215.382 42.1949 212.98 40.0045 212.98 35.6237V24.7149H209.323V20.6811H212.98V14.3484H218.13V20.6811H223.584V24.7149H218.13V35.2984C218.13 37.3587 219.039 38.1611 220.879 38.1611H223.606V42.1949H220.208Z" fill="white"/>
<path d="M234.1 42.8672C228.907 42.8672 225.812 40.2864 225.812 36.5562C225.812 32.5224 229.101 30.05 235.68 29.1391C238.126 28.8138 239.814 28.5319 240.766 28.25V27.1222C240.766 25.0185 238.97 23.739 236.265 23.739C233.668 23.739 231.439 24.7149 229.556 26.6668L226.396 24.1944C228.885 21.5919 232.412 20.0304 236.2 20.0304C243.211 20.0304 246.003 23.3052 246.003 28.8572V42.1949H240.939V39.5057C239.965 41.3274 237.325 42.8672 234.1 42.8672ZM231.027 36.1658C231.027 37.749 232.521 38.9418 234.836 38.9418C238.126 38.9418 240.766 36.7731 240.766 33.5417V31.5681C239.511 31.8501 237.996 32.1103 236.243 32.3489C232.759 32.8477 231.027 34.1272 231.027 36.1658Z" fill="white"/>
<path d="M250.828 42.1949V11.7676H256V42.1949H250.828Z" fill="white"/>
<path d="M18.3648 7.49123L16.6704 0.806791C16.3972 -0.26893 14.8766 -0.26893 14.6035 0.806791L12.909 7.49123C12.8135 7.86514 12.527 8.15852 12.1564 8.26015L4.78462 10.2831C3.71678 10.5765 3.74735 12.1067 4.82474 12.3579L11.6139 13.9398C11.9978 14.0299 12.3035 14.3252 12.4028 14.7087L14.6035 23.0767C14.8824 24.139 16.3857 24.139 16.6646 23.0767L18.8653 14.7087C18.9665 14.3252 19.2703 14.0299 19.6542 13.9398L26.4433 12.3579C27.5207 12.1067 27.5513 10.5765 26.4835 10.2831L19.1117 8.26015C18.7468 8.1566 18.4603 7.86322 18.3648 7.49123Z" fill="white"/>
</g>
<defs>
<filter id="filter0_d_1402_80" x="0" y="0" width="260" height="59" filterUnits="userSpaceOnUse" color-interpolation-filters="sRGB">
<feFlood flood-opacity="0" result="BackgroundImageFix"/>
<feColorMatrix in="SourceAlpha" type="matrix" values="0 0 0 0 0 0 0 0 0 0 0 0 0 0 0 0 0 0 127 0" result="hardAlpha"/>
<feOffset dy="4"/>
<feGaussianBlur stdDeviation="2"/>
<feComposite in2="hardAlpha" operator="out"/>
<feColorMatrix type="matrix" values="0 0 0 0 0 0 0 0 0 0 0 0 0 0 0 0 0 0 0.25 0"/>
<feBlend mode="normal" in2="BackgroundImageFix" result="effect1_dropShadow_1402_80"/>
<feBlend mode="normal" in="SourceGraphic" in2="effect1_dropShadow_1402_80" result="shape"/>
</filter>
</defs>
</svg>
